<mxfile host="app.diagrams.net" modified="2023-10-20T10:45:47.124Z" agent="Mozilla/5.0 (Windows NT 10.0; Win64; x64) AppleWebKit/537.36 (KHTML, like Gecko) Chrome/118.0.0.0 Safari/537.36" etag="toH-6GX2jCxjJeZ4G_Bb" version="22.0.5" type="device" pages="2">
  <diagram name="Page-1" id="e56a1550-8fbb-45ad-956c-1786394a9013">
    <mxGraphModel dx="2715" dy="834" grid="1" gridSize="10" guides="1" tooltips="1" connect="1" arrows="1" fold="1" page="1" pageScale="1" pageWidth="1100" pageHeight="850" background="none" math="0" shadow="0">
      <root>
        <mxCell id="0" />
        <mxCell id="1" parent="0" />
        <mxCell id="JX38ejA5HUnYTyaXAhwL-32" value="Leader" style="swimlane;html=1;fontStyle=0;childLayout=stackLayout;horizontal=1;startSize=26;fillColor=#e0e0e0;horizontalStack=0;resizeParent=1;resizeLast=0;collapsible=1;marginBottom=0;swimlaneFillColor=#ffffff;align=center;rounded=0;shadow=0;comic=0;labelBackgroundColor=none;strokeWidth=1;fontFamily=Verdana;fontSize=14;swimlaneLine=1;" parent="1" vertex="1">
          <mxGeometry x="-40" y="534" width="161.62" height="168" as="geometry" />
        </mxCell>
        <mxCell id="JX38ejA5HUnYTyaXAhwL-33" value="leader_id s/p key not null" style="shape=partialRectangle;top=0;left=0;right=0;bottom=1;html=1;align=left;verticalAlign=middle;fillColor=none;spacingLeft=34;spacingRight=4;whiteSpace=wrap;overflow=hidden;rotatable=0;points=[[0,0.5],[1,0.5]];portConstraint=eastwest;dropTarget=0;fontStyle=5;" parent="JX38ejA5HUnYTyaXAhwL-32" vertex="1">
          <mxGeometry y="26" width="161.62" height="30" as="geometry" />
        </mxCell>
        <mxCell id="JX38ejA5HUnYTyaXAhwL-34" value="PK" style="shape=partialRectangle;top=0;left=0;bottom=0;html=1;fillColor=none;align=left;verticalAlign=middle;spacingLeft=4;spacingRight=4;whiteSpace=wrap;overflow=hidden;rotatable=0;points=[];portConstraint=eastwest;part=1;" parent="JX38ejA5HUnYTyaXAhwL-33" vertex="1" connectable="0">
          <mxGeometry width="30" height="30" as="geometry" />
        </mxCell>
        <mxCell id="JX38ejA5HUnYTyaXAhwL-35" value="leader_name VARCHAR(100) not null" style="shape=partialRectangle;top=0;left=0;right=0;bottom=0;html=1;align=left;verticalAlign=top;fillColor=none;spacingLeft=34;spacingRight=4;whiteSpace=wrap;overflow=hidden;rotatable=0;points=[[0,0.5],[1,0.5]];portConstraint=eastwest;dropTarget=0;" parent="JX38ejA5HUnYTyaXAhwL-32" vertex="1">
          <mxGeometry y="56" width="161.62" height="54" as="geometry" />
        </mxCell>
        <mxCell id="JX38ejA5HUnYTyaXAhwL-36" value="" style="shape=partialRectangle;top=0;left=0;bottom=0;html=1;fillColor=none;align=left;verticalAlign=top;spacingLeft=4;spacingRight=4;whiteSpace=wrap;overflow=hidden;rotatable=0;points=[];portConstraint=eastwest;part=1;" parent="JX38ejA5HUnYTyaXAhwL-35" vertex="1" connectable="0">
          <mxGeometry width="30" height="54" as="geometry" />
        </mxCell>
        <mxCell id="JX38ejA5HUnYTyaXAhwL-37" value="weapon_id int" style="shape=partialRectangle;top=0;left=0;right=0;bottom=0;html=1;align=left;verticalAlign=top;fillColor=none;spacingLeft=34;spacingRight=4;whiteSpace=wrap;overflow=hidden;rotatable=0;points=[[0,0.5],[1,0.5]];portConstraint=eastwest;dropTarget=0;" parent="JX38ejA5HUnYTyaXAhwL-32" vertex="1">
          <mxGeometry y="110" width="161.62" height="26" as="geometry" />
        </mxCell>
        <mxCell id="JX38ejA5HUnYTyaXAhwL-38" value="FK" style="shape=partialRectangle;top=0;left=0;bottom=0;html=1;fillColor=none;align=left;verticalAlign=top;spacingLeft=4;spacingRight=4;whiteSpace=wrap;overflow=hidden;rotatable=0;points=[];portConstraint=eastwest;part=1;" parent="JX38ejA5HUnYTyaXAhwL-37" vertex="1" connectable="0">
          <mxGeometry width="30" height="26" as="geometry" />
        </mxCell>
        <mxCell id="JX38ejA5HUnYTyaXAhwL-39" value="leader_action_id int" style="shape=partialRectangle;top=0;left=0;right=0;bottom=0;html=1;align=left;verticalAlign=top;fillColor=none;spacingLeft=34;spacingRight=4;whiteSpace=wrap;overflow=hidden;rotatable=0;points=[[0,0.5],[1,0.5]];portConstraint=eastwest;dropTarget=0;" parent="JX38ejA5HUnYTyaXAhwL-32" vertex="1">
          <mxGeometry y="136" width="161.62" height="32" as="geometry" />
        </mxCell>
        <mxCell id="JX38ejA5HUnYTyaXAhwL-40" value="FK" style="shape=partialRectangle;top=0;left=0;bottom=0;html=1;fillColor=none;align=left;verticalAlign=top;spacingLeft=4;spacingRight=4;whiteSpace=wrap;overflow=hidden;rotatable=0;points=[];portConstraint=eastwest;part=1;" parent="JX38ejA5HUnYTyaXAhwL-39" vertex="1" connectable="0">
          <mxGeometry width="30" height="32" as="geometry" />
        </mxCell>
        <mxCell id="JX38ejA5HUnYTyaXAhwL-44" value="Tribesman" style="swimlane;html=1;fontStyle=0;childLayout=stackLayout;horizontal=1;startSize=26;fillColor=#e0e0e0;horizontalStack=0;resizeParent=1;resizeLast=0;collapsible=1;marginBottom=0;swimlaneFillColor=#ffffff;align=center;rounded=0;shadow=0;comic=0;labelBackgroundColor=none;strokeWidth=1;fontFamily=Verdana;fontSize=14;swimlaneLine=1;" parent="1" vertex="1">
          <mxGeometry x="450" y="59.99999999999999" width="180" height="136" as="geometry" />
        </mxCell>
        <mxCell id="JX38ejA5HUnYTyaXAhwL-45" value="tribesman_id s/p key not null" style="shape=partialRectangle;top=0;left=0;right=0;bottom=1;html=1;align=left;verticalAlign=middle;fillColor=none;spacingLeft=34;spacingRight=4;whiteSpace=wrap;overflow=hidden;rotatable=0;points=[[0,0.5],[1,0.5]];portConstraint=eastwest;dropTarget=0;fontStyle=5;" parent="JX38ejA5HUnYTyaXAhwL-44" vertex="1">
          <mxGeometry y="26" width="180" height="44" as="geometry" />
        </mxCell>
        <mxCell id="JX38ejA5HUnYTyaXAhwL-46" value="PK" style="shape=partialRectangle;top=0;left=0;bottom=0;html=1;fillColor=none;align=left;verticalAlign=middle;spacingLeft=4;spacingRight=4;whiteSpace=wrap;overflow=hidden;rotatable=0;points=[];portConstraint=eastwest;part=1;" parent="JX38ejA5HUnYTyaXAhwL-45" vertex="1" connectable="0">
          <mxGeometry width="30" height="44" as="geometry" />
        </mxCell>
        <mxCell id="JX38ejA5HUnYTyaXAhwL-47" value="leader_id int" style="shape=partialRectangle;top=0;left=0;right=0;bottom=0;html=1;align=left;verticalAlign=top;fillColor=none;spacingLeft=34;spacingRight=4;whiteSpace=wrap;overflow=hidden;rotatable=0;points=[[0,0.5],[1,0.5]];portConstraint=eastwest;dropTarget=0;" parent="JX38ejA5HUnYTyaXAhwL-44" vertex="1">
          <mxGeometry y="70" width="180" height="26" as="geometry" />
        </mxCell>
        <mxCell id="JX38ejA5HUnYTyaXAhwL-48" value="FK" style="shape=partialRectangle;top=0;left=0;bottom=0;html=1;fillColor=none;align=left;verticalAlign=top;spacingLeft=4;spacingRight=4;whiteSpace=wrap;overflow=hidden;rotatable=0;points=[];portConstraint=eastwest;part=1;" parent="JX38ejA5HUnYTyaXAhwL-47" vertex="1" connectable="0">
          <mxGeometry width="30" height="26" as="geometry" />
        </mxCell>
        <mxCell id="JX38ejA5HUnYTyaXAhwL-49" value="weapon_id int" style="shape=partialRectangle;top=0;left=0;right=0;bottom=0;html=1;align=left;verticalAlign=top;fillColor=none;spacingLeft=34;spacingRight=4;whiteSpace=wrap;overflow=hidden;rotatable=0;points=[[0,0.5],[1,0.5]];portConstraint=eastwest;dropTarget=0;" parent="JX38ejA5HUnYTyaXAhwL-44" vertex="1">
          <mxGeometry y="96" width="180" height="38" as="geometry" />
        </mxCell>
        <mxCell id="JX38ejA5HUnYTyaXAhwL-50" value="FK" style="shape=partialRectangle;top=0;left=0;bottom=0;html=1;fillColor=none;align=left;verticalAlign=top;spacingLeft=4;spacingRight=4;whiteSpace=wrap;overflow=hidden;rotatable=0;points=[];portConstraint=eastwest;part=1;" parent="JX38ejA5HUnYTyaXAhwL-49" vertex="1" connectable="0">
          <mxGeometry width="30" height="38" as="geometry" />
        </mxCell>
        <mxCell id="JX38ejA5HUnYTyaXAhwL-51" value="" style="shape=partialRectangle;top=0;left=0;right=0;bottom=0;html=1;align=left;verticalAlign=top;fillColor=none;spacingLeft=34;spacingRight=4;whiteSpace=wrap;overflow=hidden;rotatable=0;points=[[0,0.5],[1,0.5]];portConstraint=eastwest;dropTarget=0;" parent="JX38ejA5HUnYTyaXAhwL-44" vertex="1">
          <mxGeometry y="134" width="180" height="2" as="geometry" />
        </mxCell>
        <mxCell id="JX38ejA5HUnYTyaXAhwL-52" value="" style="shape=partialRectangle;top=0;left=0;bottom=0;html=1;fillColor=none;align=left;verticalAlign=top;spacingLeft=4;spacingRight=4;whiteSpace=wrap;overflow=hidden;rotatable=0;points=[];portConstraint=eastwest;part=1;" parent="JX38ejA5HUnYTyaXAhwL-51" vertex="1" connectable="0">
          <mxGeometry width="30" height="2" as="geometry" />
        </mxCell>
        <mxCell id="JX38ejA5HUnYTyaXAhwL-72" value="Movement_Flock" style="swimlane;html=1;fontStyle=0;childLayout=stackLayout;horizontal=1;startSize=26;fillColor=#e0e0e0;horizontalStack=0;resizeParent=1;resizeLast=0;collapsible=1;marginBottom=0;swimlaneFillColor=#ffffff;align=center;rounded=0;shadow=0;comic=0;labelBackgroundColor=none;strokeWidth=1;fontFamily=Verdana;fontSize=14;swimlaneLine=1;" parent="1" vertex="1">
          <mxGeometry x="-500" y="170" width="181.62" height="190" as="geometry" />
        </mxCell>
        <mxCell id="JX38ejA5HUnYTyaXAhwL-73" value="movement_flock_id s/p key not null" style="shape=partialRectangle;top=0;left=0;right=0;bottom=1;html=1;align=left;verticalAlign=middle;fillColor=none;spacingLeft=34;spacingRight=4;whiteSpace=wrap;overflow=hidden;rotatable=0;points=[[0,0.5],[1,0.5]];portConstraint=eastwest;dropTarget=0;fontStyle=5;" parent="JX38ejA5HUnYTyaXAhwL-72" vertex="1">
          <mxGeometry y="26" width="181.62" height="44" as="geometry" />
        </mxCell>
        <mxCell id="JX38ejA5HUnYTyaXAhwL-74" value="PK" style="shape=partialRectangle;top=0;left=0;bottom=0;html=1;fillColor=none;align=left;verticalAlign=middle;spacingLeft=4;spacingRight=4;whiteSpace=wrap;overflow=hidden;rotatable=0;points=[];portConstraint=eastwest;part=1;" parent="JX38ejA5HUnYTyaXAhwL-73" vertex="1" connectable="0">
          <mxGeometry width="30" height="44" as="geometry" />
        </mxCell>
        <mxCell id="JX38ejA5HUnYTyaXAhwL-75" value="from_place_name VARCHAR(100) not null" style="shape=partialRectangle;top=0;left=0;right=0;bottom=0;html=1;align=left;verticalAlign=top;fillColor=none;spacingLeft=34;spacingRight=4;whiteSpace=wrap;overflow=hidden;rotatable=0;points=[[0,0.5],[1,0.5]];portConstraint=eastwest;dropTarget=0;" parent="JX38ejA5HUnYTyaXAhwL-72" vertex="1">
          <mxGeometry y="70" width="181.62" height="50" as="geometry" />
        </mxCell>
        <mxCell id="JX38ejA5HUnYTyaXAhwL-76" value="" style="shape=partialRectangle;top=0;left=0;bottom=0;html=1;fillColor=none;align=left;verticalAlign=top;spacingLeft=4;spacingRight=4;whiteSpace=wrap;overflow=hidden;rotatable=0;points=[];portConstraint=eastwest;part=1;" parent="JX38ejA5HUnYTyaXAhwL-75" vertex="1" connectable="0">
          <mxGeometry width="30" height="50" as="geometry" />
        </mxCell>
        <mxCell id="JX38ejA5HUnYTyaXAhwL-77" value="to_place_name VARCHAR (100) not null" style="shape=partialRectangle;top=0;left=0;right=0;bottom=0;html=1;align=left;verticalAlign=top;fillColor=none;spacingLeft=34;spacingRight=4;whiteSpace=wrap;overflow=hidden;rotatable=0;points=[[0,0.5],[1,0.5]];portConstraint=eastwest;dropTarget=0;" parent="JX38ejA5HUnYTyaXAhwL-72" vertex="1">
          <mxGeometry y="120" width="181.62" height="50" as="geometry" />
        </mxCell>
        <mxCell id="JX38ejA5HUnYTyaXAhwL-78" value="" style="shape=partialRectangle;top=0;left=0;bottom=0;html=1;fillColor=none;align=left;verticalAlign=top;spacingLeft=4;spacingRight=4;whiteSpace=wrap;overflow=hidden;rotatable=0;points=[];portConstraint=eastwest;part=1;" parent="JX38ejA5HUnYTyaXAhwL-77" vertex="1" connectable="0">
          <mxGeometry width="30" height="50" as="geometry" />
        </mxCell>
        <mxCell id="JX38ejA5HUnYTyaXAhwL-79" value="" style="shape=partialRectangle;top=0;left=0;right=0;bottom=0;html=1;align=left;verticalAlign=top;fillColor=none;spacingLeft=34;spacingRight=4;whiteSpace=wrap;overflow=hidden;rotatable=0;points=[[0,0.5],[1,0.5]];portConstraint=eastwest;dropTarget=0;" parent="JX38ejA5HUnYTyaXAhwL-72" vertex="1">
          <mxGeometry y="170" width="181.62" height="20" as="geometry" />
        </mxCell>
        <mxCell id="JX38ejA5HUnYTyaXAhwL-80" value="" style="shape=partialRectangle;top=0;left=0;bottom=0;html=1;fillColor=none;align=left;verticalAlign=top;spacingLeft=4;spacingRight=4;whiteSpace=wrap;overflow=hidden;rotatable=0;points=[];portConstraint=eastwest;part=1;" parent="JX38ejA5HUnYTyaXAhwL-79" vertex="1" connectable="0">
          <mxGeometry width="30" height="20" as="geometry" />
        </mxCell>
        <mxCell id="JX38ejA5HUnYTyaXAhwL-81" value="Flock_Characteristic" style="swimlane;html=1;fontStyle=0;childLayout=stackLayout;horizontal=1;startSize=26;fillColor=#e0e0e0;horizontalStack=0;resizeParent=1;resizeLast=0;collapsible=1;marginBottom=0;swimlaneFillColor=#ffffff;align=center;rounded=0;shadow=0;comic=0;labelBackgroundColor=none;strokeWidth=1;fontFamily=Verdana;fontSize=14;swimlaneLine=1;" parent="1" vertex="1">
          <mxGeometry x="-500" y="20" width="180" height="124" as="geometry" />
        </mxCell>
        <mxCell id="JX38ejA5HUnYTyaXAhwL-82" value="flock_characteristic_id s/p key not null" style="shape=partialRectangle;top=0;left=0;right=0;bottom=1;html=1;align=left;verticalAlign=middle;fillColor=none;spacingLeft=34;spacingRight=4;whiteSpace=wrap;overflow=hidden;rotatable=0;points=[[0,0.5],[1,0.5]];portConstraint=eastwest;dropTarget=0;fontStyle=5;" parent="JX38ejA5HUnYTyaXAhwL-81" vertex="1">
          <mxGeometry y="26" width="180" height="44" as="geometry" />
        </mxCell>
        <mxCell id="JX38ejA5HUnYTyaXAhwL-83" value="PK" style="shape=partialRectangle;top=0;left=0;bottom=0;html=1;fillColor=none;align=left;verticalAlign=middle;spacingLeft=4;spacingRight=4;whiteSpace=wrap;overflow=hidden;rotatable=0;points=[];portConstraint=eastwest;part=1;" parent="JX38ejA5HUnYTyaXAhwL-82" vertex="1" connectable="0">
          <mxGeometry width="30" height="44" as="geometry" />
        </mxCell>
        <mxCell id="JX38ejA5HUnYTyaXAhwL-84" value="f_characteristic_name varchar(255) not null" style="shape=partialRectangle;top=0;left=0;right=0;bottom=0;html=1;align=left;verticalAlign=top;fillColor=none;spacingLeft=34;spacingRight=4;whiteSpace=wrap;overflow=hidden;rotatable=0;points=[[0,0.5],[1,0.5]];portConstraint=eastwest;dropTarget=0;" parent="JX38ejA5HUnYTyaXAhwL-81" vertex="1">
          <mxGeometry y="70" width="180" height="54" as="geometry" />
        </mxCell>
        <mxCell id="JX38ejA5HUnYTyaXAhwL-85" value="" style="shape=partialRectangle;top=0;left=0;bottom=0;html=1;fillColor=none;align=left;verticalAlign=top;spacingLeft=4;spacingRight=4;whiteSpace=wrap;overflow=hidden;rotatable=0;points=[];portConstraint=eastwest;part=1;" parent="JX38ejA5HUnYTyaXAhwL-84" vertex="1" connectable="0">
          <mxGeometry width="30" height="54" as="geometry" />
        </mxCell>
        <mxCell id="JX38ejA5HUnYTyaXAhwL-92" value="Leader_Action" style="swimlane;html=1;fontStyle=0;childLayout=stackLayout;horizontal=1;startSize=26;fillColor=#e0e0e0;horizontalStack=0;resizeParent=1;resizeLast=0;collapsible=1;marginBottom=0;swimlaneFillColor=#ffffff;align=center;rounded=0;shadow=0;comic=0;labelBackgroundColor=none;strokeWidth=1;fontFamily=Verdana;fontSize=14;swimlaneLine=1;" parent="1" vertex="1">
          <mxGeometry x="300" y="400" width="160" height="134" as="geometry" />
        </mxCell>
        <mxCell id="JX38ejA5HUnYTyaXAhwL-93" value="leader_action_id s/p key not null" style="shape=partialRectangle;top=0;left=0;right=0;bottom=1;html=1;align=left;verticalAlign=middle;fillColor=none;spacingLeft=34;spacingRight=4;whiteSpace=wrap;overflow=hidden;rotatable=0;points=[[0,0.5],[1,0.5]];portConstraint=eastwest;dropTarget=0;fontStyle=5;" parent="JX38ejA5HUnYTyaXAhwL-92" vertex="1">
          <mxGeometry y="26" width="160" height="44" as="geometry" />
        </mxCell>
        <mxCell id="JX38ejA5HUnYTyaXAhwL-94" value="PK" style="shape=partialRectangle;top=0;left=0;bottom=0;html=1;fillColor=none;align=left;verticalAlign=middle;spacingLeft=4;spacingRight=4;whiteSpace=wrap;overflow=hidden;rotatable=0;points=[];portConstraint=eastwest;part=1;" parent="JX38ejA5HUnYTyaXAhwL-93" vertex="1" connectable="0">
          <mxGeometry width="30" height="44" as="geometry" />
        </mxCell>
        <mxCell id="JX38ejA5HUnYTyaXAhwL-95" value="leader_action_name&amp;nbsp;&lt;br&gt;VARCHAR(255) not null" style="shape=partialRectangle;top=0;left=0;right=0;bottom=0;html=1;align=left;verticalAlign=top;fillColor=none;spacingLeft=34;spacingRight=4;whiteSpace=wrap;overflow=hidden;rotatable=0;points=[[0,0.5],[1,0.5]];portConstraint=eastwest;dropTarget=0;" parent="JX38ejA5HUnYTyaXAhwL-92" vertex="1">
          <mxGeometry y="70" width="160" height="60" as="geometry" />
        </mxCell>
        <mxCell id="JX38ejA5HUnYTyaXAhwL-96" value="" style="shape=partialRectangle;top=0;left=0;bottom=0;html=1;fillColor=none;align=left;verticalAlign=top;spacingLeft=4;spacingRight=4;whiteSpace=wrap;overflow=hidden;rotatable=0;points=[];portConstraint=eastwest;part=1;" parent="JX38ejA5HUnYTyaXAhwL-95" vertex="1" connectable="0">
          <mxGeometry width="30" height="60" as="geometry" />
        </mxCell>
        <mxCell id="JX38ejA5HUnYTyaXAhwL-97" value="" style="shape=partialRectangle;top=0;left=0;right=0;bottom=0;html=1;align=left;verticalAlign=top;fillColor=none;spacingLeft=34;spacingRight=4;whiteSpace=wrap;overflow=hidden;rotatable=0;points=[[0,0.5],[1,0.5]];portConstraint=eastwest;dropTarget=0;" parent="JX38ejA5HUnYTyaXAhwL-92" vertex="1">
          <mxGeometry y="130" width="160" height="2" as="geometry" />
        </mxCell>
        <mxCell id="JX38ejA5HUnYTyaXAhwL-98" value="" style="shape=partialRectangle;top=0;left=0;bottom=0;html=1;fillColor=none;align=left;verticalAlign=top;spacingLeft=4;spacingRight=4;whiteSpace=wrap;overflow=hidden;rotatable=0;points=[];portConstraint=eastwest;part=1;" parent="JX38ejA5HUnYTyaXAhwL-97" vertex="1" connectable="0">
          <mxGeometry width="30" height="2" as="geometry" />
        </mxCell>
        <mxCell id="JX38ejA5HUnYTyaXAhwL-99" value="" style="shape=partialRectangle;top=0;left=0;right=0;bottom=0;html=1;align=left;verticalAlign=top;fillColor=none;spacingLeft=34;spacingRight=4;whiteSpace=wrap;overflow=hidden;rotatable=0;points=[[0,0.5],[1,0.5]];portConstraint=eastwest;dropTarget=0;" parent="JX38ejA5HUnYTyaXAhwL-92" vertex="1">
          <mxGeometry y="132" width="160" height="2" as="geometry" />
        </mxCell>
        <mxCell id="JX38ejA5HUnYTyaXAhwL-100" value="" style="shape=partialRectangle;top=0;left=0;bottom=0;html=1;fillColor=none;align=left;verticalAlign=top;spacingLeft=4;spacingRight=4;whiteSpace=wrap;overflow=hidden;rotatable=0;points=[];portConstraint=eastwest;part=1;" parent="JX38ejA5HUnYTyaXAhwL-99" vertex="1" connectable="0">
          <mxGeometry width="30" height="2" as="geometry" />
        </mxCell>
        <mxCell id="JX38ejA5HUnYTyaXAhwL-101" value="Flock_Action" style="swimlane;html=1;fontStyle=0;childLayout=stackLayout;horizontal=1;startSize=26;fillColor=#e0e0e0;horizontalStack=0;resizeParent=1;resizeLast=0;collapsible=1;marginBottom=0;swimlaneFillColor=#ffffff;align=center;rounded=0;shadow=0;comic=0;labelBackgroundColor=none;strokeWidth=1;fontFamily=Verdana;fontSize=14;swimlaneLine=1;" parent="1" vertex="1">
          <mxGeometry x="-500" y="406" width="181.62" height="128" as="geometry" />
        </mxCell>
        <mxCell id="JX38ejA5HUnYTyaXAhwL-102" value="flock_action_id s/p not null" style="shape=partialRectangle;top=0;left=0;right=0;bottom=1;html=1;align=left;verticalAlign=middle;fillColor=none;spacingLeft=34;spacingRight=4;whiteSpace=wrap;overflow=hidden;rotatable=0;points=[[0,0.5],[1,0.5]];portConstraint=eastwest;dropTarget=0;fontStyle=5;" parent="JX38ejA5HUnYTyaXAhwL-101" vertex="1">
          <mxGeometry y="26" width="181.62" height="44" as="geometry" />
        </mxCell>
        <mxCell id="JX38ejA5HUnYTyaXAhwL-103" value="PK" style="shape=partialRectangle;top=0;left=0;bottom=0;html=1;fillColor=none;align=left;verticalAlign=middle;spacingLeft=4;spacingRight=4;whiteSpace=wrap;overflow=hidden;rotatable=0;points=[];portConstraint=eastwest;part=1;" parent="JX38ejA5HUnYTyaXAhwL-102" vertex="1" connectable="0">
          <mxGeometry width="30" height="44" as="geometry" />
        </mxCell>
        <mxCell id="JX38ejA5HUnYTyaXAhwL-104" value="flock_action_name&amp;nbsp;&lt;br&gt;VARCHAR(255) not null" style="shape=partialRectangle;top=0;left=0;right=0;bottom=0;html=1;align=left;verticalAlign=top;fillColor=none;spacingLeft=34;spacingRight=4;whiteSpace=wrap;overflow=hidden;rotatable=0;points=[[0,0.5],[1,0.5]];portConstraint=eastwest;dropTarget=0;" parent="JX38ejA5HUnYTyaXAhwL-101" vertex="1">
          <mxGeometry y="70" width="181.62" height="54" as="geometry" />
        </mxCell>
        <mxCell id="JX38ejA5HUnYTyaXAhwL-105" value="" style="shape=partialRectangle;top=0;left=0;bottom=0;html=1;fillColor=none;align=left;verticalAlign=top;spacingLeft=4;spacingRight=4;whiteSpace=wrap;overflow=hidden;rotatable=0;points=[];portConstraint=eastwest;part=1;" parent="JX38ejA5HUnYTyaXAhwL-104" vertex="1" connectable="0">
          <mxGeometry width="30" height="54.00000000000001" as="geometry" />
        </mxCell>
        <mxCell id="JX38ejA5HUnYTyaXAhwL-106" value="" style="shape=partialRectangle;top=0;left=0;right=0;bottom=0;html=1;align=left;verticalAlign=top;fillColor=none;spacingLeft=34;spacingRight=4;whiteSpace=wrap;overflow=hidden;rotatable=0;points=[[0,0.5],[1,0.5]];portConstraint=eastwest;dropTarget=0;" parent="JX38ejA5HUnYTyaXAhwL-101" vertex="1">
          <mxGeometry y="124" width="181.62" height="2" as="geometry" />
        </mxCell>
        <mxCell id="JX38ejA5HUnYTyaXAhwL-107" value="" style="shape=partialRectangle;top=0;left=0;bottom=0;html=1;fillColor=none;align=left;verticalAlign=top;spacingLeft=4;spacingRight=4;whiteSpace=wrap;overflow=hidden;rotatable=0;points=[];portConstraint=eastwest;part=1;" parent="JX38ejA5HUnYTyaXAhwL-106" vertex="1" connectable="0">
          <mxGeometry width="30" height="2" as="geometry" />
        </mxCell>
        <mxCell id="JX38ejA5HUnYTyaXAhwL-108" value="" style="shape=partialRectangle;top=0;left=0;right=0;bottom=0;html=1;align=left;verticalAlign=top;fillColor=none;spacingLeft=34;spacingRight=4;whiteSpace=wrap;overflow=hidden;rotatable=0;points=[[0,0.5],[1,0.5]];portConstraint=eastwest;dropTarget=0;" parent="JX38ejA5HUnYTyaXAhwL-101" vertex="1">
          <mxGeometry y="126" width="181.62" height="2" as="geometry" />
        </mxCell>
        <mxCell id="JX38ejA5HUnYTyaXAhwL-109" value="" style="shape=partialRectangle;top=0;left=0;bottom=0;html=1;fillColor=none;align=left;verticalAlign=top;spacingLeft=4;spacingRight=4;whiteSpace=wrap;overflow=hidden;rotatable=0;points=[];portConstraint=eastwest;part=1;" parent="JX38ejA5HUnYTyaXAhwL-108" vertex="1" connectable="0">
          <mxGeometry width="30" height="2" as="geometry" />
        </mxCell>
        <mxCell id="JX38ejA5HUnYTyaXAhwL-110" value="Weapon" style="swimlane;html=1;fontStyle=0;childLayout=stackLayout;horizontal=1;startSize=26;fillColor=#e0e0e0;horizontalStack=0;resizeParent=1;resizeLast=0;collapsible=1;marginBottom=0;swimlaneFillColor=#ffffff;align=center;rounded=0;shadow=0;comic=0;labelBackgroundColor=none;strokeWidth=1;fontFamily=Verdana;fontSize=14;swimlaneLine=1;" parent="1" vertex="1">
          <mxGeometry x="140" y="60" width="180" height="134" as="geometry" />
        </mxCell>
        <mxCell id="JX38ejA5HUnYTyaXAhwL-111" value="weapon_id s/p key not null" style="shape=partialRectangle;top=0;left=0;right=0;bottom=1;html=1;align=left;verticalAlign=middle;fillColor=none;spacingLeft=34;spacingRight=4;whiteSpace=wrap;overflow=hidden;rotatable=0;points=[[0,0.5],[1,0.5]];portConstraint=eastwest;dropTarget=0;fontStyle=5;" parent="JX38ejA5HUnYTyaXAhwL-110" vertex="1">
          <mxGeometry y="26" width="180" height="44" as="geometry" />
        </mxCell>
        <mxCell id="JX38ejA5HUnYTyaXAhwL-112" value="PK" style="shape=partialRectangle;top=0;left=0;bottom=0;html=1;fillColor=none;align=left;verticalAlign=middle;spacingLeft=4;spacingRight=4;whiteSpace=wrap;overflow=hidden;rotatable=0;points=[];portConstraint=eastwest;part=1;" parent="JX38ejA5HUnYTyaXAhwL-111" vertex="1" connectable="0">
          <mxGeometry width="30" height="44" as="geometry" />
        </mxCell>
        <mxCell id="JX38ejA5HUnYTyaXAhwL-113" value="weapon_name VARCHAR(100) not null unique" style="shape=partialRectangle;top=0;left=0;right=0;bottom=0;html=1;align=left;verticalAlign=top;fillColor=none;spacingLeft=34;spacingRight=4;whiteSpace=wrap;overflow=hidden;rotatable=0;points=[[0,0.5],[1,0.5]];portConstraint=eastwest;dropTarget=0;" parent="JX38ejA5HUnYTyaXAhwL-110" vertex="1">
          <mxGeometry y="70" width="180" height="60" as="geometry" />
        </mxCell>
        <mxCell id="JX38ejA5HUnYTyaXAhwL-114" value="" style="shape=partialRectangle;top=0;left=0;bottom=0;html=1;fillColor=none;align=left;verticalAlign=top;spacingLeft=4;spacingRight=4;whiteSpace=wrap;overflow=hidden;rotatable=0;points=[];portConstraint=eastwest;part=1;" parent="JX38ejA5HUnYTyaXAhwL-113" vertex="1" connectable="0">
          <mxGeometry width="30" height="60" as="geometry" />
        </mxCell>
        <mxCell id="JX38ejA5HUnYTyaXAhwL-115" value="" style="shape=partialRectangle;top=0;left=0;right=0;bottom=0;html=1;align=left;verticalAlign=top;fillColor=none;spacingLeft=34;spacingRight=4;whiteSpace=wrap;overflow=hidden;rotatable=0;points=[[0,0.5],[1,0.5]];portConstraint=eastwest;dropTarget=0;" parent="JX38ejA5HUnYTyaXAhwL-110" vertex="1">
          <mxGeometry y="130" width="180" height="2" as="geometry" />
        </mxCell>
        <mxCell id="JX38ejA5HUnYTyaXAhwL-116" value="" style="shape=partialRectangle;top=0;left=0;bottom=0;html=1;fillColor=none;align=left;verticalAlign=top;spacingLeft=4;spacingRight=4;whiteSpace=wrap;overflow=hidden;rotatable=0;points=[];portConstraint=eastwest;part=1;" parent="JX38ejA5HUnYTyaXAhwL-115" vertex="1" connectable="0">
          <mxGeometry width="30" height="2" as="geometry" />
        </mxCell>
        <mxCell id="JX38ejA5HUnYTyaXAhwL-117" value="" style="shape=partialRectangle;top=0;left=0;right=0;bottom=0;html=1;align=left;verticalAlign=top;fillColor=none;spacingLeft=34;spacingRight=4;whiteSpace=wrap;overflow=hidden;rotatable=0;points=[[0,0.5],[1,0.5]];portConstraint=eastwest;dropTarget=0;" parent="JX38ejA5HUnYTyaXAhwL-110" vertex="1">
          <mxGeometry y="132" width="180" height="2" as="geometry" />
        </mxCell>
        <mxCell id="JX38ejA5HUnYTyaXAhwL-118" value="" style="shape=partialRectangle;top=0;left=0;bottom=0;html=1;fillColor=none;align=left;verticalAlign=top;spacingLeft=4;spacingRight=4;whiteSpace=wrap;overflow=hidden;rotatable=0;points=[];portConstraint=eastwest;part=1;" parent="JX38ejA5HUnYTyaXAhwL-117" vertex="1" connectable="0">
          <mxGeometry width="30" height="2" as="geometry" />
        </mxCell>
        <mxCell id="JX38ejA5HUnYTyaXAhwL-120" value="" style="edgeStyle=entityRelationEdgeStyle;fontSize=12;html=1;endArrow=ERzeroToMany;endFill=1;startArrow=ERzeroToMany;rounded=0;exitX=1;exitY=0.5;exitDx=0;exitDy=0;" parent="1" source="JX38ejA5HUnYTyaXAhwL-82" target="FLDCTS-Tf1YZMrSrodI8-14" edge="1">
          <mxGeometry width="100" height="100" relative="1" as="geometry">
            <mxPoint x="-310" y="90" as="sourcePoint" />
            <mxPoint x="-240" y="232" as="targetPoint" />
          </mxGeometry>
        </mxCell>
        <mxCell id="JX38ejA5HUnYTyaXAhwL-121" value="" style="edgeStyle=entityRelationEdgeStyle;fontSize=12;html=1;endArrow=ERoneToMany;startArrow=ERzeroToOne;rounded=0;entryX=0.012;entryY=0.278;entryDx=0;entryDy=0;entryPerimeter=0;" parent="1" target="3T-ePBBsvI1m_GS1p8ql-8" edge="1">
          <mxGeometry width="100" height="100" relative="1" as="geometry">
            <mxPoint x="-318.38" y="210" as="sourcePoint" />
            <mxPoint x="-218.38" y="110" as="targetPoint" />
          </mxGeometry>
        </mxCell>
        <mxCell id="JX38ejA5HUnYTyaXAhwL-122" value="" style="edgeStyle=entityRelationEdgeStyle;fontSize=12;html=1;endArrow=ERoneToMany;startArrow=ERzeroToOne;rounded=0;entryX=1;entryY=0.5;entryDx=0;entryDy=0;exitX=-0.031;exitY=0.667;exitDx=0;exitDy=0;exitPerimeter=0;" parent="1" source="3T-ePBBsvI1m_GS1p8ql-8" target="JX38ejA5HUnYTyaXAhwL-102" edge="1">
          <mxGeometry width="100" height="100" relative="1" as="geometry">
            <mxPoint x="-250" y="377" as="sourcePoint" />
            <mxPoint x="-270" y="440" as="targetPoint" />
          </mxGeometry>
        </mxCell>
        <mxCell id="JX38ejA5HUnYTyaXAhwL-123" value="" style="edgeStyle=entityRelationEdgeStyle;fontSize=12;html=1;endArrow=ERmandOne;startArrow=ERmandOne;rounded=0;exitX=1;exitY=0.5;exitDx=0;exitDy=0;entryX=0;entryY=0.5;entryDx=0;entryDy=0;" parent="1" source="3T-ePBBsvI1m_GS1p8ql-6" target="JX38ejA5HUnYTyaXAhwL-33" edge="1">
          <mxGeometry width="100" height="100" relative="1" as="geometry">
            <mxPoint x="20" y="210" as="sourcePoint" />
            <mxPoint x="120" y="110" as="targetPoint" />
          </mxGeometry>
        </mxCell>
        <mxCell id="JX38ejA5HUnYTyaXAhwL-125" value="" style="edgeStyle=entityRelationEdgeStyle;fontSize=12;html=1;endArrow=ERzeroToMany;startArrow=ERzeroToOne;rounded=0;entryX=0;entryY=0.5;entryDx=0;entryDy=0;exitX=1;exitY=0.5;exitDx=0;exitDy=0;" parent="1" source="JX38ejA5HUnYTyaXAhwL-39" target="JX38ejA5HUnYTyaXAhwL-93" edge="1">
          <mxGeometry width="100" height="100" relative="1" as="geometry">
            <mxPoint x="20" y="210" as="sourcePoint" />
            <mxPoint x="120" y="110" as="targetPoint" />
            <Array as="points">
              <mxPoint x="130" y="210" />
            </Array>
          </mxGeometry>
        </mxCell>
        <mxCell id="JX38ejA5HUnYTyaXAhwL-126" value="" style="edgeStyle=entityRelationEdgeStyle;fontSize=12;html=1;endArrow=ERzeroToOne;startArrow=ERmandOne;rounded=0;entryX=0;entryY=0.5;entryDx=0;entryDy=0;" parent="1" source="JX38ejA5HUnYTyaXAhwL-37" target="JX38ejA5HUnYTyaXAhwL-111" edge="1">
          <mxGeometry width="100" height="100" relative="1" as="geometry">
            <mxPoint x="20" y="210" as="sourcePoint" />
            <mxPoint x="120" y="110" as="targetPoint" />
            <Array as="points">
              <mxPoint x="180" y="160" />
            </Array>
          </mxGeometry>
        </mxCell>
        <mxCell id="JX38ejA5HUnYTyaXAhwL-128" value="" style="edgeStyle=entityRelationEdgeStyle;fontSize=12;html=1;endArrow=ERzeroToOne;startArrow=ERmandOne;rounded=0;entryX=1;entryY=0.5;entryDx=0;entryDy=0;exitX=0;exitY=0.5;exitDx=0;exitDy=0;" parent="1" source="JX38ejA5HUnYTyaXAhwL-49" target="JX38ejA5HUnYTyaXAhwL-111" edge="1">
          <mxGeometry width="100" height="100" relative="1" as="geometry">
            <mxPoint x="152" y="215" as="sourcePoint" />
            <mxPoint x="220" y="161" as="targetPoint" />
            <Array as="points">
              <mxPoint x="190" y="170" />
            </Array>
          </mxGeometry>
        </mxCell>
        <mxCell id="JX38ejA5HUnYTyaXAhwL-132" value="" style="edgeStyle=entityRelationEdgeStyle;fontSize=12;html=1;endArrow=ERzeroToMany;startArrow=ERmandOne;rounded=0;entryX=0;entryY=0.5;entryDx=0;entryDy=0;exitX=1.015;exitY=0.074;exitDx=0;exitDy=0;exitPerimeter=0;" parent="1" source="JX38ejA5HUnYTyaXAhwL-32" target="JX38ejA5HUnYTyaXAhwL-47" edge="1">
          <mxGeometry width="100" height="100" relative="1" as="geometry">
            <mxPoint x="140" y="150" as="sourcePoint" />
            <mxPoint x="240" y="50" as="targetPoint" />
          </mxGeometry>
        </mxCell>
        <mxCell id="FLDCTS-Tf1YZMrSrodI8-1" value="Flock_to_Characteristic" style="swimlane;html=1;fontStyle=0;childLayout=stackLayout;horizontal=1;startSize=26;fillColor=#e0e0e0;horizontalStack=0;resizeParent=1;resizeLast=0;collapsible=1;marginBottom=0;swimlaneFillColor=#ffffff;align=center;rounded=0;shadow=0;comic=0;labelBackgroundColor=none;strokeWidth=1;fontFamily=Verdana;fontSize=14;swimlaneLine=1;" parent="1" vertex="1">
          <mxGeometry x="-80" y="50" width="180" height="110" as="geometry" />
        </mxCell>
        <mxCell id="FLDCTS-Tf1YZMrSrodI8-2" value="flock_id s/p key not null" style="shape=partialRectangle;top=0;left=0;right=0;bottom=1;html=1;align=left;verticalAlign=middle;fillColor=none;spacingLeft=34;spacingRight=4;whiteSpace=wrap;overflow=hidden;rotatable=0;points=[[0,0.5],[1,0.5]];portConstraint=eastwest;dropTarget=0;fontStyle=5;" parent="FLDCTS-Tf1YZMrSrodI8-1" vertex="1">
          <mxGeometry y="26" width="180" height="30" as="geometry" />
        </mxCell>
        <mxCell id="FLDCTS-Tf1YZMrSrodI8-3" value="FK" style="shape=partialRectangle;top=0;left=0;bottom=0;html=1;fillColor=none;align=left;verticalAlign=middle;spacingLeft=4;spacingRight=4;whiteSpace=wrap;overflow=hidden;rotatable=0;points=[];portConstraint=eastwest;part=1;" parent="FLDCTS-Tf1YZMrSrodI8-2" vertex="1" connectable="0">
          <mxGeometry width="30" height="30" as="geometry" />
        </mxCell>
        <mxCell id="FLDCTS-Tf1YZMrSrodI8-14" value="flock_characteristic_id s/p key not null" style="shape=partialRectangle;top=0;left=0;right=0;bottom=1;html=1;align=left;verticalAlign=middle;fillColor=none;spacingLeft=34;spacingRight=4;whiteSpace=wrap;overflow=hidden;rotatable=0;points=[[0,0.5],[1,0.5]];portConstraint=eastwest;dropTarget=0;fontStyle=5;" parent="FLDCTS-Tf1YZMrSrodI8-1" vertex="1">
          <mxGeometry y="56" width="180" height="54" as="geometry" />
        </mxCell>
        <mxCell id="FLDCTS-Tf1YZMrSrodI8-15" value="FK" style="shape=partialRectangle;top=0;left=0;bottom=0;html=1;fillColor=none;align=left;verticalAlign=middle;spacingLeft=4;spacingRight=4;whiteSpace=wrap;overflow=hidden;rotatable=0;points=[];portConstraint=eastwest;part=1;" parent="FLDCTS-Tf1YZMrSrodI8-14" vertex="1" connectable="0">
          <mxGeometry width="30" height="54" as="geometry" />
        </mxCell>
        <mxCell id="FLDCTS-Tf1YZMrSrodI8-20" value="" style="edgeStyle=entityRelationEdgeStyle;fontSize=12;html=1;endArrow=ERzeroToMany;endFill=1;startArrow=ERzeroToMany;rounded=0;exitX=0;exitY=0.5;exitDx=0;exitDy=0;entryX=1;entryY=0.5;entryDx=0;entryDy=0;" parent="1" source="FLDCTS-Tf1YZMrSrodI8-2" target="3T-ePBBsvI1m_GS1p8ql-2" edge="1">
          <mxGeometry width="100" height="100" relative="1" as="geometry">
            <mxPoint x="-130" y="90" as="sourcePoint" />
            <mxPoint x="-50" y="261" as="targetPoint" />
          </mxGeometry>
        </mxCell>
        <mxCell id="3T-ePBBsvI1m_GS1p8ql-1" value="Flock" style="swimlane;html=1;fontStyle=0;childLayout=stackLayout;horizontal=1;startSize=26;fillColor=#e0e0e0;horizontalStack=0;resizeParent=1;resizeLast=0;collapsible=1;marginBottom=0;swimlaneFillColor=#ffffff;align=center;rounded=1;shadow=0;comic=0;labelBackgroundColor=none;strokeWidth=1;fontFamily=Verdana;fontSize=14;swimlaneLine=1;" parent="1" vertex="1">
          <mxGeometry x="-260" y="228" width="160" height="152" as="geometry" />
        </mxCell>
        <mxCell id="3T-ePBBsvI1m_GS1p8ql-2" value="flock_id s/p key not null" style="shape=partialRectangle;top=0;left=0;right=0;bottom=1;html=1;align=left;verticalAlign=middle;fillColor=none;spacingLeft=34;spacingRight=4;whiteSpace=wrap;overflow=hidden;rotatable=0;points=[[0,0.5],[1,0.5]];portConstraint=eastwest;dropTarget=0;fontStyle=5;" parent="3T-ePBBsvI1m_GS1p8ql-1" vertex="1">
          <mxGeometry y="26" width="160" height="44" as="geometry" />
        </mxCell>
        <mxCell id="3T-ePBBsvI1m_GS1p8ql-3" value="PK" style="shape=partialRectangle;top=0;left=0;bottom=0;html=1;fillColor=none;align=left;verticalAlign=middle;spacingLeft=4;spacingRight=4;whiteSpace=wrap;overflow=hidden;rotatable=0;points=[];portConstraint=eastwest;part=1;" parent="3T-ePBBsvI1m_GS1p8ql-2" vertex="1" connectable="0">
          <mxGeometry width="30" height="44" as="geometry" />
        </mxCell>
        <mxCell id="3T-ePBBsvI1m_GS1p8ql-4" value="" style="shape=partialRectangle;top=0;left=0;right=0;bottom=0;html=1;align=left;verticalAlign=top;fillColor=none;spacingLeft=34;spacingRight=4;whiteSpace=wrap;overflow=hidden;rotatable=0;points=[[0,0.5],[1,0.5]];portConstraint=eastwest;dropTarget=0;" parent="3T-ePBBsvI1m_GS1p8ql-1" vertex="1">
          <mxGeometry y="70" width="160" as="geometry" />
        </mxCell>
        <mxCell id="3T-ePBBsvI1m_GS1p8ql-5" value="" style="shape=partialRectangle;top=0;left=0;bottom=0;html=1;fillColor=none;align=left;verticalAlign=top;spacingLeft=4;spacingRight=4;whiteSpace=wrap;overflow=hidden;rotatable=0;points=[];portConstraint=eastwest;part=1;" parent="3T-ePBBsvI1m_GS1p8ql-4" vertex="1" connectable="0">
          <mxGeometry width="30" as="geometry" />
        </mxCell>
        <mxCell id="3T-ePBBsvI1m_GS1p8ql-6" value="leader_id int" style="shape=partialRectangle;top=0;left=0;right=0;bottom=0;html=1;align=left;verticalAlign=top;fillColor=none;spacingLeft=34;spacingRight=4;whiteSpace=wrap;overflow=hidden;rotatable=0;points=[[0,0.5],[1,0.5]];portConstraint=eastwest;dropTarget=0;" parent="3T-ePBBsvI1m_GS1p8ql-1" vertex="1">
          <mxGeometry y="70" width="160" height="26" as="geometry" />
        </mxCell>
        <mxCell id="3T-ePBBsvI1m_GS1p8ql-7" value="FK" style="shape=partialRectangle;top=0;left=0;bottom=0;html=1;fillColor=none;align=left;verticalAlign=top;spacingLeft=4;spacingRight=4;whiteSpace=wrap;overflow=hidden;rotatable=0;points=[];portConstraint=eastwest;part=1;" parent="3T-ePBBsvI1m_GS1p8ql-6" vertex="1" connectable="0">
          <mxGeometry width="30" height="26" as="geometry" />
        </mxCell>
        <mxCell id="3T-ePBBsvI1m_GS1p8ql-8" value="movement_flock_id int&lt;br&gt;&lt;br&gt;flock_action_id int" style="shape=partialRectangle;top=0;left=0;right=0;bottom=0;html=1;align=left;verticalAlign=top;fillColor=none;spacingLeft=34;spacingRight=4;whiteSpace=wrap;overflow=hidden;rotatable=0;points=[[0,0.5],[1,0.5]];portConstraint=eastwest;dropTarget=0;" parent="3T-ePBBsvI1m_GS1p8ql-1" vertex="1">
          <mxGeometry y="96" width="160" height="54" as="geometry" />
        </mxCell>
        <mxCell id="3T-ePBBsvI1m_GS1p8ql-9" value="FK&lt;br&gt;&lt;br&gt;FK" style="shape=partialRectangle;top=0;left=0;bottom=0;html=1;fillColor=none;align=left;verticalAlign=top;spacingLeft=4;spacingRight=4;whiteSpace=wrap;overflow=hidden;rotatable=0;points=[];portConstraint=eastwest;part=1;" parent="3T-ePBBsvI1m_GS1p8ql-8" vertex="1" connectable="0">
          <mxGeometry width="30" height="54" as="geometry" />
        </mxCell>
        <mxCell id="3T-ePBBsvI1m_GS1p8ql-10" value="" style="shape=partialRectangle;top=0;left=0;right=0;bottom=0;html=1;align=left;verticalAlign=top;fillColor=none;spacingLeft=34;spacingRight=4;whiteSpace=wrap;overflow=hidden;rotatable=0;points=[[0,0.5],[1,0.5]];portConstraint=eastwest;dropTarget=0;" parent="3T-ePBBsvI1m_GS1p8ql-1" vertex="1">
          <mxGeometry y="150" width="160" height="2" as="geometry" />
        </mxCell>
        <mxCell id="3T-ePBBsvI1m_GS1p8ql-11" value="" style="shape=partialRectangle;top=0;left=0;bottom=0;html=1;fillColor=none;align=left;verticalAlign=top;spacingLeft=4;spacingRight=4;whiteSpace=wrap;overflow=hidden;rotatable=0;points=[];portConstraint=eastwest;part=1;" parent="3T-ePBBsvI1m_GS1p8ql-10" vertex="1" connectable="0">
          <mxGeometry width="30" height="2" as="geometry" />
        </mxCell>
        <mxCell id="3T-ePBBsvI1m_GS1p8ql-12" value="Flock_Name" style="swimlane;html=1;fontStyle=0;childLayout=stackLayout;horizontal=1;startSize=26;fillColor=#e0e0e0;horizontalStack=0;resizeParent=1;resizeLast=0;collapsible=1;marginBottom=0;swimlaneFillColor=#ffffff;align=center;rounded=0;shadow=0;comic=0;labelBackgroundColor=none;strokeWidth=1;fontFamily=Verdana;fontSize=14;swimlaneLine=1;" parent="1" vertex="1">
          <mxGeometry x="130" y="220" width="160" height="130" as="geometry" />
        </mxCell>
        <mxCell id="3T-ePBBsvI1m_GS1p8ql-13" value="flock_id s/p key not null" style="shape=partialRectangle;top=0;left=0;right=0;bottom=1;html=1;align=left;verticalAlign=middle;fillColor=none;spacingLeft=34;spacingRight=4;whiteSpace=wrap;overflow=hidden;rotatable=0;points=[[0,0.5],[1,0.5]];portConstraint=eastwest;dropTarget=0;fontStyle=5;" parent="3T-ePBBsvI1m_GS1p8ql-12" vertex="1">
          <mxGeometry y="26" width="160" height="44" as="geometry" />
        </mxCell>
        <mxCell id="3T-ePBBsvI1m_GS1p8ql-14" value="PK" style="shape=partialRectangle;top=0;left=0;bottom=0;html=1;fillColor=none;align=left;verticalAlign=middle;spacingLeft=4;spacingRight=4;whiteSpace=wrap;overflow=hidden;rotatable=0;points=[];portConstraint=eastwest;part=1;" parent="3T-ePBBsvI1m_GS1p8ql-13" vertex="1" connectable="0">
          <mxGeometry width="30" height="44" as="geometry" />
        </mxCell>
        <mxCell id="3T-ePBBsvI1m_GS1p8ql-15" value="flock_name VARCHAR(100) not null" style="shape=partialRectangle;top=0;left=0;right=0;bottom=0;html=1;align=left;verticalAlign=top;fillColor=none;spacingLeft=34;spacingRight=4;whiteSpace=wrap;overflow=hidden;rotatable=0;points=[[0,0.5],[1,0.5]];portConstraint=eastwest;dropTarget=0;" parent="3T-ePBBsvI1m_GS1p8ql-12" vertex="1">
          <mxGeometry y="70" width="160" height="50" as="geometry" />
        </mxCell>
        <mxCell id="3T-ePBBsvI1m_GS1p8ql-16" value="" style="shape=partialRectangle;top=0;left=0;bottom=0;html=1;fillColor=none;align=left;verticalAlign=top;spacingLeft=4;spacingRight=4;whiteSpace=wrap;overflow=hidden;rotatable=0;points=[];portConstraint=eastwest;part=1;" parent="3T-ePBBsvI1m_GS1p8ql-15" vertex="1" connectable="0">
          <mxGeometry width="30" height="50" as="geometry" />
        </mxCell>
        <mxCell id="3T-ePBBsvI1m_GS1p8ql-21" value="" style="shape=partialRectangle;top=0;left=0;right=0;bottom=0;html=1;align=left;verticalAlign=top;fillColor=none;spacingLeft=34;spacingRight=4;whiteSpace=wrap;overflow=hidden;rotatable=0;points=[[0,0.5],[1,0.5]];portConstraint=eastwest;dropTarget=0;" parent="3T-ePBBsvI1m_GS1p8ql-12" vertex="1">
          <mxGeometry y="120" width="160" height="8" as="geometry" />
        </mxCell>
        <mxCell id="3T-ePBBsvI1m_GS1p8ql-22" value="" style="shape=partialRectangle;top=0;left=0;bottom=0;html=1;fillColor=none;align=left;verticalAlign=top;spacingLeft=4;spacingRight=4;whiteSpace=wrap;overflow=hidden;rotatable=0;points=[];portConstraint=eastwest;part=1;" parent="3T-ePBBsvI1m_GS1p8ql-21" vertex="1" connectable="0">
          <mxGeometry width="30" height="8" as="geometry" />
        </mxCell>
        <mxCell id="0aQwEqNZSiEgE-OB5TMV-1" value="" style="edgeStyle=entityRelationEdgeStyle;fontSize=12;html=1;endArrow=ERmandOne;startArrow=ERmandOne;rounded=0;exitX=1.006;exitY=0.273;exitDx=0;exitDy=0;entryX=0;entryY=0.5;entryDx=0;entryDy=0;exitPerimeter=0;" edge="1" parent="1" source="3T-ePBBsvI1m_GS1p8ql-2" target="3T-ePBBsvI1m_GS1p8ql-13">
          <mxGeometry width="100" height="100" relative="1" as="geometry">
            <mxPoint x="-90" y="321" as="sourcePoint" />
            <mxPoint x="-30" y="585" as="targetPoint" />
          </mxGeometry>
        </mxCell>
      </root>
    </mxGraphModel>
  </diagram>
  <diagram id="IS6918w1mr1VWoM4kqcZ" name="Page-2">
    <mxGraphModel dx="322" dy="445" grid="1" gridSize="10" guides="1" tooltips="1" connect="1" arrows="1" fold="1" page="1" pageScale="1" pageWidth="850" pageHeight="1100" math="0" shadow="0">
      <root>
        <mxCell id="0" />
        <mxCell id="1" parent="0" />
      </root>
    </mxGraphModel>
  </diagram>
</mxfile>
